# xmcd
#
# Track frame offsets: 
#        150
#        18684
#        29916
#        46632
#        59197
#        73782
#        88832
#        107856
#        118075
#        138978
#        151719
#        162135
#        177685
#        190002
#        201025
#        214126
#        229820
#        244463
#
# Disc length: 3442 seconds
#
# Revision: 2
# Processed by: cddbd v1.5.2PL0 Copyright (c) Steve Scherf et al.
# Submitted via: ExactAudioCopyFreeDBPlugin 1.0
#
DISCID=100d7012
DTITLE=Jonny Hill - Gold - 36 Starke Hits - CD2
DYEAR=1900
DGENRE=Country
TTITLE0=Wieder mal auf Tournee
TTITLE1=Ich fahr' meine Tour
TTITLE2=Rosen für Mama
TTITLE3=Fünfhundert Meilen von zu Haus
TTITLE4=Wie heisst deine Mama
TTITLE5=Am besten etwas mehr als alles
TTITLE6=Kinder, alte Hunde und herber Wein
TTITLE7=Heute Nacht da brauch' ich dich
TTITLE8=Papillon
TTITLE9=Kann Liebe alles verzeihn
TTITLE10=König der Landstraße
TTITLE11=Lucille
TTITLE12=Der Zug der heimwärts geht
TTITLE13=Die Arbeit hört nie auf
TTITLE14=Mexican Joe
TTITLE15=Pack doch deinen Koffer wieder aus
TTITLE16=Nur noch einmal nach Haus
TTITLE17=Ich lösch das Licht aus
EXTD=
EXTT0=
EXTT1=
EXTT2=
EXTT3=
EXTT4=
EXTT5=
EXTT6=
EXTT7=
EXTT8=
EXTT9=
EXTT10=
EXTT11=
EXTT12=
EXTT13=
EXTT14=
EXTT15=
EXTT16=
EXTT17=
PLAYORDER=
